# xmcd
#
# Track frame offsets:
# 150
# 19076
# 38956
# 58147
# 79330
# 94939
# 119271
# 139486
# 154839
# 169292
# 188287
# 211120
# 231996
#
# Disc length: 3481 seconds
#
#
# Revision: 0
# Processed by: cddbd v1.5.1PL2 Copyright (c) Steve Scherf et al.
# Submitted via: Nero 7, 2, 0, 3 
#
DISCID=b20d970d
DTITLE=levon helm - midnight ramble session
DYEAR=2006
DGENRE=Blues
TTITLE0=midnight ramble session
TTITLE1=midnight ramble session
TTITLE2=midnight ramble session
TTITLE3=midnight ramble session
TTITLE4=midnight ramble session
TTITLE5=midnight ramble session
TTITLE6=midnight ramble session
TTITLE7=midnight ramble session
TTITLE8=midnight ramble session
TTITLE9=midnight ramble session
TTITLE10=midnight ramble session
TTITLE11=midnight ramble session
TTITLE12=midnight ramble session
EXTD=
EXTT0=
EXTT1=
EXTT2=
EXTT3=
EXTT4=
EXTT5=
EXTT6=
EXTT7=
EXTT8=
EXTT9=
EXTT10=
EXTT11=
EXTT12=
PLAYORDER=
